HIERARCHY
ROOT newVegas:Hips
{
	OFFSET 0.000000 96.479958 0.000000
	CHANNELS 6 Xposition Yposition Zposition Xrotation Yrotation Zrotation
	JOINT newVegas:Pelvis
	{
		OFFSET 0.000000 0.000000 0.000000
		CHANNELS 3 Xrotation Yrotation Zrotation
		JOINT newVegas:LeftUpLeg
		{
			OFFSET 18.735201 -5.666702 -4.541200
			CHANNELS 3 Xrotation Yrotation Zrotation
			JOINT newVegas:LeftLeg
			{
				OFFSET -0.021200 -31.938179 0.493100
				CHANNELS 3 Xrotation Yrotation Zrotation
				JOINT newVegas:LeftFoot
				{
					OFFSET 0.021200 -31.938179 -4.336299
					CHANNELS 3 Xrotation Yrotation Zrotation
					JOINT newVegas:LeftToeBase
					{
						OFFSET 0.943001 -26.722000 15.023500
						CHANNELS 3 Xrotation Yrotation Zrotation
						End Site
						{
							OFFSET 0.000000 30.670183 0.000000
						}
					}
				}
				JOINT newVegas:Left_PantLeg
				{
					OFFSET 0.663870 -9.044666 -1.108900
					CHANNELS 3 Xrotation Yrotation Zrotation
					End Site
					{
						OFFSET 1.415995 20.635357 0.000000
					}
				}
			}
		}
		JOINT newVegas:RightUpLeg
		{
			OFFSET -18.735201 -5.666702 -4.541200
			CHANNELS 3 Xrotation Yrotation Zrotation
			JOINT newVegas:RightLeg
			{
				OFFSET 0.018946 -31.938133 0.493100
				CHANNELS 3 Xrotation Yrotation Zrotation
				JOINT newVegas:RightFoot
				{
					OFFSET -0.018946 -31.938126 -4.336299
					CHANNELS 3 Xrotation Yrotation Zrotation
					JOINT newVegas:RightToeBase
					{
						OFFSET -0.943001 -26.722004 15.023500
						CHANNELS 3 Xrotation Yrotation Zrotation
						End Site
						{
							OFFSET 0.000000 30.670187 0.000000
						}
					}
				}
				JOINT newVegas:Right_PantLeg
				{
					OFFSET -0.661674 -9.044716 -1.108900
					CHANNELS 3 Xrotation Yrotation Zrotation
					End Site
					{
						OFFSET -1.415958 20.635269 0.000000
					}
				}
			}
		}
	}
	JOINT newVegas:Spine
	{
		OFFSET 0.000000 10.199997 -0.299500
		CHANNELS 3 Xrotation Yrotation Zrotation
		JOINT newVegas:Spine1
		{
			OFFSET 0.000000 11.900002 -1.516600
			CHANNELS 3 Xrotation Yrotation Zrotation
			JOINT newVegas:Spine2
			{
				OFFSET 0.000000 13.600006 -2.842500
				CHANNELS 3 Xrotation Yrotation Zrotation
				JOINT newVegas:Neck
				{
					OFFSET 0.000000 9.624100 -2.890100
					CHANNELS 3 Xrotation Yrotation Zrotation
					JOINT newVegas:Head
					{
						OFFSET 0.000000 14.068802 -1.351900
						CHANNELS 3 Xrotation Yrotation Zrotation
						JOINT newVegas:Hair_Back
						{
							OFFSET 0.000000 3.231903 -17.524799
							CHANNELS 3 Xrotation Yrotation Zrotation
							End Site
							{
								OFFSET 0.000000 19.849884 0.000000
							}
						}
						JOINT newVegas:Hair_Front
						{
							OFFSET 0.000000 31.260406 4.573800
							CHANNELS 3 Xrotation Yrotation Zrotation
							JOINT newVegas:Hair_Front1
							{
								OFFSET 0.000000 2.284103 11.993300
								CHANNELS 3 Xrotation Yrotation Zrotation
								JOINT newVegas:Hair_Front2
								{
									OFFSET 0.000000 2.284103 11.993300
									CHANNELS 3 Xrotation Yrotation Zrotation
									End Site
									{
										OFFSET 0.000000 12.208862 0.000000
									}
								}
							}
						}
						JOINT newVegas:Jowel
						{
							OFFSET 0.000000 -7.458206 6.864100
							CHANNELS 3 Xrotation Yrotation Zrotation
							End Site
							{
								OFFSET 0.000000 19.849884 0.000000
							}
						}
					}
				}
				JOINT newVegas:LeftShoulder
				{
					OFFSET 15.263000 10.923401 -0.547700
					CHANNELS 3 Xrotation Yrotation Zrotation
					JOINT newVegas:LeftArm
					{
						OFFSET 25.438599 -2.830597 -13.032500
						CHANNELS 3 Xrotation Yrotation Zrotation
						JOINT newVegas:LeftForeArm
						{
							OFFSET 29.960503 0.000000 0.000000
							CHANNELS 3 Xrotation Yrotation Zrotation
							JOINT newVegas:LeftHand
							{
								OFFSET 27.849251 0.000000 0.000000
								CHANNELS 3 Xrotation Yrotation Zrotation
								JOINT newVegas:LeftHandThumb1
								{
									OFFSET 4.487587 -3.305161 6.305391
									CHANNELS 3 Xrotation Yrotation Zrotation
									JOINT newVegas:LeftHandThumb2
									{
										OFFSET 5.480453 -3.164139 3.164143
										CHANNELS 3 Xrotation Yrotation Zrotation
										JOINT newVegas:LeftHandThumb3
										{
											OFFSET 5.159721 -2.978973 2.978967
											CHANNELS 3 Xrotation Yrotation Zrotation
											End Site
											{
												OFFSET 2.494507 5.926697 1.738678
											}
										}
									}
								}
								JOINT newVegas:LeftHandIndex1
								{
									OFFSET 18.578728 -0.527832 5.208049
									CHANNELS 3 Xrotation Yrotation Zrotation
									JOINT newVegas:LeftHandIndex2
									{
										OFFSET 3.192009 0.000000 0.000000
										CHANNELS 3 Xrotation Yrotation Zrotation
										JOINT newVegas:LeftHandIndex3
										{
											OFFSET 3.835129 0.000000 0.000000
											CHANNELS 3 Xrotation Yrotation Zrotation
											End Site
											{
												OFFSET -0.034599 3.816971 0.371180
											}
										}
									}
								}
								JOINT newVegas:LeftHandMiddle1
								{
									OFFSET 18.476105 0.000000 0.000000
									CHANNELS 3 Xrotation Yrotation Zrotation
									JOINT newVegas:LeftHandMiddle2
									{
										OFFSET 3.324875 0.000000 0.000000
										CHANNELS 3 Xrotation Yrotation Zrotation
										JOINT newVegas:LeftHandMiddle3
										{
											OFFSET 4.596550 0.000000 0.000000
											CHANNELS 3 Xrotation Yrotation Zrotation
											End Site
											{
												OFFSET 0.057701 4.578827 0.399218
											}
										}
									}
								}
								JOINT newVegas:LeftHandRing1
								{
									OFFSET 17.732719 0.121887 -4.201567
									CHANNELS 3 Xrotation Yrotation Zrotation
									JOINT newVegas:LeftHandRing2
									{
										OFFSET 2.733170 0.000000 0.000000
										CHANNELS 3 Xrotation Yrotation Zrotation
										JOINT newVegas:LeftHandRing3
										{
											OFFSET 3.178268 0.000000 0.000000
											CHANNELS 3 Xrotation Yrotation Zrotation
											End Site
											{
												OFFSET 0.119102 3.170624 0.185394
											}
										}
									}
								}
								JOINT newVegas:LeftHandPinky1
								{
									OFFSET 15.989624 -0.606689 -7.535461
									CHANNELS 3 Xrotation Yrotation Zrotation
									JOINT newVegas:LeftHandPinky2
									{
										OFFSET 2.538986 0.000000 0.000000
										CHANNELS 3 Xrotation Yrotation Zrotation
										JOINT newVegas:LeftHandPinky3
										{
											OFFSET 2.593102 0.000000 0.000000
											CHANNELS 3 Xrotation Yrotation Zrotation
											End Site
											{
												OFFSET -0.150902 2.584198 0.152708
											}
										}
									}
								}
							}
							JOINT newVegas:Left_Sleeve
							{
								OFFSET 0.267448 -0.649796 0.577675
								CHANNELS 3 Xrotation Yrotation Zrotation
								End Site
								{
									OFFSET 0.000000 15.991241 0.000000
								}
							}
							JOINT newVegas:Left_CapeC
							{
								OFFSET 15.715958 -8.608795 -6.935905
								CHANNELS 3 Xrotation Yrotation Zrotation
								JOINT newVegas:Left_CapeC1
								{
									OFFSET 0.000000 -8.688499 0.000000
									CHANNELS 3 Xrotation Yrotation Zrotation
									End Site
									{
										OFFSET 0.000000 8.688499 0.000000
									}
								}
							}
						}
						JOINT newVegas:Left_CapeB
						{
							OFFSET 26.118385 -8.608795 -7.079235
							CHANNELS 3 Xrotation Yrotation Zrotation
							JOINT newVegas:Left_CapeB1
							{
								OFFSET 0.000000 -8.688499 0.000000
								CHANNELS 3 Xrotation Yrotation Zrotation
								End Site
								{
									OFFSET 0.000000 8.688499 0.000000
								}
							}
						}
						JOINT newVegas:Left_CapeA
						{
							OFFSET 5.115639 -8.608795 -10.395809
							CHANNELS 3 Xrotation Yrotation Zrotation
							JOINT newVegas:Left_CapeA1
							{
								OFFSET 0.000000 -8.688499 0.000000
								CHANNELS 3 Xrotation Yrotation Zrotation
								End Site
								{
									OFFSET 0.000000 8.688499 0.000000
								}
							}
						}
					}
				}
				JOINT newVegas:RightShoulder
				{
					OFFSET -15.263000 10.923401 -0.547700
					CHANNELS 3 Xrotation Yrotation Zrotation
					JOINT newVegas:RightArm
					{
						OFFSET -25.438599 -2.830597 -13.032500
						CHANNELS 3 Xrotation Yrotation Zrotation
						JOINT newVegas:RightForeArm
						{
							OFFSET -29.960503 0.000000 0.000000
							CHANNELS 3 Xrotation Yrotation Zrotation
							JOINT newVegas:RightHand
							{
								OFFSET -27.849251 0.000000 0.000000
								CHANNELS 3 Xrotation Yrotation Zrotation
								JOINT newVegas:RightHandThumb1
								{
									OFFSET -4.487587 -3.305161 6.305391
									CHANNELS 3 Xrotation Yrotation Zrotation
									JOINT newVegas:RightHandThumb2
									{
										OFFSET -5.480453 -3.164139 3.164143
										CHANNELS 3 Xrotation Yrotation Zrotation
										JOINT newVegas:RightHandThumb3
										{
											OFFSET -5.159721 -2.978973 2.978967
											CHANNELS 3 Xrotation Yrotation Zrotation
											End Site
											{
												OFFSET -2.494507 5.926697 1.738678
											}
										}
									}
								}
								JOINT newVegas:RightHandIndex1
								{
									OFFSET -18.578728 -0.527832 5.208049
									CHANNELS 3 Xrotation Yrotation Zrotation
									JOINT newVegas:RightHandIndex2
									{
										OFFSET -3.192009 0.000000 0.000000
										CHANNELS 3 Xrotation Yrotation Zrotation
										JOINT newVegas:RightHandIndex3
										{
											OFFSET -3.835129 0.000000 0.000000
											CHANNELS 3 Xrotation Yrotation Zrotation
											End Site
											{
												OFFSET 0.034599 3.816971 0.371180
											}
										}
									}
								}
								JOINT newVegas:RightHandMiddle1
								{
									OFFSET -18.476105 0.000000 0.000000
									CHANNELS 3 Xrotation Yrotation Zrotation
									JOINT newVegas:RightHandMiddle2
									{
										OFFSET -3.324875 0.000000 0.000000
										CHANNELS 3 Xrotation Yrotation Zrotation
										JOINT newVegas:RightHandMiddle3
										{
											OFFSET -4.596550 0.000000 0.000000
											CHANNELS 3 Xrotation Yrotation Zrotation
											End Site
											{
												OFFSET -0.057701 4.578827 0.399218
											}
										}
									}
								}
								JOINT newVegas:RightHandRing1
								{
									OFFSET -17.732719 0.121887 -4.201567
									CHANNELS 3 Xrotation Yrotation Zrotation
									JOINT newVegas:RightHandRing2
									{
										OFFSET -2.733170 0.000000 0.000000
										CHANNELS 3 Xrotation Yrotation Zrotation
										JOINT newVegas:RightHandRing3
										{
											OFFSET -3.178268 0.000000 0.000000
											CHANNELS 3 Xrotation Yrotation Zrotation
											End Site
											{
												OFFSET -0.119102 3.170624 0.185394
											}
										}
									}
								}
								JOINT newVegas:RightHandPinky1
								{
									OFFSET -15.989624 -0.606689 -7.535461
									CHANNELS 3 Xrotation Yrotation Zrotation
									JOINT newVegas:RightHandPinky2
									{
										OFFSET -2.538986 0.000000 0.000000
										CHANNELS 3 Xrotation Yrotation Zrotation
										JOINT newVegas:RightHandPinky3
										{
											OFFSET -2.593102 0.000000 0.000000
											CHANNELS 3 Xrotation Yrotation Zrotation
											End Site
											{
												OFFSET 0.150902 2.584198 0.152708
											}
										}
									}
								}
							}
							JOINT newVegas:Right_CapeC
							{
								OFFSET -15.715958 -8.608795 -6.935905
								CHANNELS 3 Xrotation Yrotation Zrotation
								JOINT newVegas:Right_CapeC1
								{
									OFFSET 0.000000 -8.688499 0.000000
									CHANNELS 3 Xrotation Yrotation Zrotation
									End Site
									{
										OFFSET 0.000000 8.688499 0.000000
									}
								}
							}
							JOINT newVegas:Right_Sleeve
							{
								OFFSET -0.267448 -0.649994 0.577675
								CHANNELS 3 Xrotation Yrotation Zrotation
								End Site
								{
									OFFSET 0.000000 15.991302 0.000000
								}
							}
						}
						JOINT newVegas:Right_CapeA
						{
							OFFSET -5.115540 -8.608795 -10.395824
							CHANNELS 3 Xrotation Yrotation Zrotation
							JOINT newVegas:Right_CapeA1
							{
								OFFSET 0.000000 -8.688499 0.000000
								CHANNELS 3 Xrotation Yrotation Zrotation
								End Site
								{
									OFFSET 0.000000 8.688499 0.000000
								}
							}
						}
						JOINT newVegas:Right_CapeB
						{
							OFFSET -26.118187 -8.608795 -7.079266
							CHANNELS 3 Xrotation Yrotation Zrotation
							JOINT newVegas:Right_CapeB1
							{
								OFFSET 0.000000 -8.688499 0.000000
								CHANNELS 3 Xrotation Yrotation Zrotation
								End Site
								{
									OFFSET 0.000000 8.688499 0.000000
								}
							}
						}
					}
				}
				JOINT newVegas:Left_Collar
				{
					OFFSET 18.625099 8.655502 8.828100
					CHANNELS 3 Xrotation Yrotation Zrotation
					JOINT newVegas:Left_Collar1
					{
						OFFSET 14.783401 10.540405 -1.259500
						CHANNELS 3 Xrotation Yrotation Zrotation
						End Site
						{
							OFFSET 0.000000 18.199875 0.000000
						}
					}
				}
				JOINT newVegas:Collar_Back
				{
					OFFSET 0.000000 15.630707 -20.132601
					CHANNELS 3 Xrotation Yrotation Zrotation
					End Site
					{
						OFFSET 0.000000 22.523010 0.000000
					}
				}
				JOINT newVegas:Left_Peck
				{
					OFFSET 17.239599 -5.132599 25.482599
					CHANNELS 3 Xrotation Yrotation Zrotation
					End Site
					{
						OFFSET 0.000000 22.523010 0.000000
					}
				}
				JOINT newVegas:Right_Peck
				{
					OFFSET -17.239599 -5.132202 25.482599
					CHANNELS 3 Xrotation Yrotation Zrotation
					End Site
					{
						OFFSET 0.000000 22.523010 0.000000
					}
				}
				JOINT newVegas:Right_Collar
				{
					OFFSET -18.625099 8.655792 8.828100
					CHANNELS 3 Xrotation Yrotation Zrotation
					JOINT newVegas:Right_Collar1
					{
						OFFSET -14.783401 10.539993 -1.259500
						CHANNELS 3 Xrotation Yrotation Zrotation
						End Site
						{
							OFFSET 0.000000 18.199631 0.000000
						}
					}
				}
			}
		}
		JOINT newVegas:Belly
		{
			OFFSET 0.000000 -6.540398 9.014299
			CHANNELS 3 Xrotation Yrotation Zrotation
			End Site
			{
				OFFSET 0.000000 11.566666 0.000000
			}
		}
	}
	JOINT newVegas:ElvisFacialAnim_Joint
	{
		OFFSET 1.000000 -95.330101 -8.825800
		CHANNELS 3 Xrotation Yrotation Zrotation
		End Site
		{
			OFFSET 0.000000 35.315800 0.000000
		}
	}
}
MOTION
Frames: 4
Frame Time: 0.033333
1.177287 88.581787 150.334167 143.146954 51.008867 -179.044625 0.000001 0.000001 0.000002 -73.389221 -23.733533 31.187460 40.794541 -8.722983 -1.536856 8.354249 -13.791550 -8.737682 -0.000000 -0.000002 -0.000000 0.000000 -0.000001 -0.000000 -64.676031 -0.849976 -1.196778 64.510816 -7.763814 -0.295280 -10.278413 -3.692489 19.323708 -0.000000 0.000001 -0.000000 -0.000001 0.000000 0.000000 24.748161 -1.945823 -2.249358 3.040902 -0.716812 1.980042 3.051896 -0.576511 2.021291 2.043116 -0.383572 -0.963161 2.043143 -0.383567 -0.963160 -0.000002 0.000000 -0.000002 2.043124 -0.383573 -0.963157 2.043130 -0.383543 -0.963161 0.000001 0.000002 0.000002 -0.000002 0.000000 -0.000001 2.801700 -5.279700 9.831261 -74.111172 -34.236402 -33.959018 0.000010 -26.212429 0.000011 68.125591 -5.932182 59.551893 14.655426 3.353955 17.365934 14.723897 3.855159 -2.588322 0.000000 -0.000002 -0.000005 0.978405 0.259802 -18.308466 2.717884 4.943948 -57.577866 0.000000 0.000003 0.000002 0.537275 4.814253 -32.662081 3.047244 5.137563 -61.325031 0.000003 0.000001 0.000001 4.756194 10.272552 -38.368516 2.781783 4.983801 -58.316353 0.000002 0.000001 0.000003 7.913270 13.594043 -52.186245 1.344414 3.735471 -39.576766 -0.000002 -0.000003 0.000002 0.000001 -0.000002 -0.000000 0.000001 -0.000002 -0.000000 0.000000 -0.000002 0.000000 0.000002 -0.000002 0.000005 0.000002 -0.000002 0.000003 0.000002 -0.000002 0.000005 0.000001 -0.000003 0.000005 0.608141 7.572813 9.131138 19.896563 0.597214 66.029139 -0.000000 27.541438 0.000004 0.713258 25.719810 -4.920708 10.214757 -3.814980 -1.312398 15.698100 5.343908 -11.247179 0.000001 -0.000003 -0.000001 -1.072550 5.744415 8.185217 0.415201 -1.924007 24.353963 0.000003 -0.000001 0.000001 0.029310 -2.865071 15.861070 0.416545 -1.926930 24.393507 0.000002 0.000002 0.000001 1.127588 -5.925203 21.190928 0.545681 -2.189289 27.987800 0.000001 -0.000001 -0.000001 2.618564 -8.358619 27.297093 0.415128 -1.923785 24.351226 0.000002 0.000003 0.000001 0.000001 0.000000 -0.000002 0.000001 -0.000000 -0.000001 0.000001 -0.000000 -0.000000 0.000001 -0.000001 -0.000001 0.000001 -0.000001 -0.000000 0.000001 -0.000001 -0.000001 0.000001 -0.000000 -0.000000 -0.000001 0.000001 0.000003 -0.000001 0.000001 0.000003 -0.000001 0.000001 0.000003 -0.000001 0.000001 0.000003 -0.000001 0.000001 0.000003 -0.000001 0.000001 0.000003 -0.000001 0.000001 0.000003 -0.000001 -0.000001 -0.000001 0.000001 0.000001 0.000002 
1.483293 87.669289 152.664810 144.996652 51.069461 -179.362065 0.000002 0.000000 0.000001 -72.949173 -23.560374 32.038563 39.478275 -8.823255 -1.587326 10.337525 -14.418446 -10.179929 -0.000000 -0.000000 -0.000000 -0.000000 0.000002 -0.000001 -68.236349 -1.254061 -1.657051 69.944313 -6.582849 -0.191253 -11.048452 -3.793823 18.473495 -0.000000 -0.000000 -0.000000 -0.000001 0.000000 -0.000002 25.262450 -1.864625 -2.132238 3.018105 -0.727577 1.836101 3.029180 -0.593381 1.879630 1.973210 -0.377632 -0.971088 1.973215 -0.377620 -0.971106 0.000003 -0.000002 -0.000002 1.973230 -0.377631 -0.971103 1.973244 -0.377629 -0.971096 0.000001 -0.000002 0.000003 0.000003 -0.000002 -0.000001 2.721008 -5.077596 9.236815 -74.247407 -32.270038 -33.984016 0.000007 -25.745684 0.000010 66.765195 -5.968439 60.497745 15.355483 3.264536 17.040939 14.723921 3.855158 -2.588304 0.000002 0.000002 -0.000002 1.036853 0.399334 -20.001032 2.790480 4.989135 -58.416443 -0.000001 0.000001 0.000000 0.684755 5.106971 -35.604082 3.122744 5.177978 -62.164912 0.000002 -0.000003 -0.000002 5.245676 10.550694 -40.401044 3.030594 5.128441 -61.138922 0.000003 0.000001 0.000001 8.740886 13.782958 -55.080763 1.533015 3.952078 -42.389691 -0.000002 -0.000005 -0.000000 -0.000001 0.000001 -0.000000 -0.000001 0.000001 -0.000000 -0.000001 0.000000 0.000000 0.000000 -0.000003 0.000004 0.000000 -0.000003 0.000002 0.000000 -0.000003 0.000004 -0.000001 -0.000003 0.000003 0.613219 7.589458 8.992042 18.970869 0.429777 65.909679 -0.000026 28.971050 0.000019 1.433579 27.102416 -7.038948 10.214755 -3.814986 -1.312395 15.698106 5.343909 -11.247174 0.000001 -0.000004 -0.000001 -1.072552 5.744405 8.185227 0.415210 -1.924005 24.353974 0.000004 0.000000 -0.000001 0.029301 -2.865074 15.861064 0.416548 -1.926936 24.393531 -0.000003 0.000000 0.000000 1.127595 -5.925204 21.190940 0.545667 -2.189308 27.987786 0.000000 0.000001 -0.000001 2.618564 -8.358607 27.297083 0.415124 -1.923796 24.351219 -0.000001 0.000002 0.000000 -0.000001 0.000001 -0.000001 0.000000 0.000000 -0.000001 -0.000001 0.000000 -0.000000 -0.000001 -0.000001 -0.000002 -0.000002 -0.000002 -0.000002 -0.000001 -0.000001 -0.000002 -0.000002 -0.000001 -0.000002 -0.000002 -0.000004 0.000002 -0.000002 -0.000004 0.000002 -0.000002 -0.000004 0.000002 -0.000002 -0.000004 0.000002 -0.000002 -0.000004 0.000002 -0.000002 -0.000004 0.000002 -0.000002 -0.000004 0.000002 -0.000003 0.000002 -0.000001 0.000002 0.000000 0.000001 
1.759354 86.793442 155.018127 147.325555 51.260536 -179.632049 0.000001 0.000000 0.000002 -71.877605 -22.663141 32.927191 37.761941 -8.905124 -1.633727 12.186070 -15.066818 -11.471736 -0.000000 -0.000002 -0.000000 0.000002 -0.000001 0.000000 -71.613789 -1.139825 -2.263206 75.070083 -5.507284 -0.094805 -11.323769 -3.730630 17.833501 -0.000001 0.000000 -0.000001 -0.000002 0.000001 -0.000000 25.635846 -1.812663 -1.651724 3.027411 -0.830458 1.691183 3.038470 -0.706195 1.742941 1.885523 -0.368041 -0.929063 1.885528 -0.368031 -0.929057 -0.000000 -0.000000 -0.000001 1.885611 -0.367979 -0.929064 1.885435 -0.368055 -0.929059 -0.000001 0.000000 -0.000003 -0.000000 -0.000000 -0.000000 2.499551 -4.901929 7.464968 -72.780139 -29.359947 -33.668451 0.000003 -25.517051 0.000004 64.813830 -6.013281 62.433660 16.104085 3.158897 16.692788 14.723909 3.855149 -2.588320 0.000002 0.000000 -0.000003 1.070395 0.470295 -20.923938 2.739325 4.957450 -57.826342 -0.000002 0.000003 0.000002 0.779736 5.274859 -37.281252 3.069648 5.149713 -61.574954 0.000003 -0.000001 -0.000001 5.381169 10.602912 -41.072506 3.169069 5.202059 -62.677019 0.000004 -0.000000 -0.000002 8.994292 13.774443 -56.190040 1.640208 4.066101 -43.922631 -0.000001 -0.000007 0.000001 0.000001 -0.000001 -0.000001 0.000001 -0.000001 -0.000001 0.000000 -0.000001 -0.000001 -0.000002 -0.000001 -0.000002 -0.000002 -0.000001 -0.000004 -0.000002 -0.000001 -0.000002 -0.000003 -0.000002 -0.000003 0.620129 7.671696 8.825608 18.362629 0.552019 66.072969 -0.000004 30.391422 -0.000003 2.297441 28.470757 -9.183726 10.214754 -3.814981 -1.312417 15.698087 5.343909 -11.247182 -0.000000 0.000000 -0.000000 -1.072566 5.744396 8.185218 0.415214 -1.924009 24.353984 0.000001 0.000002 -0.000001 0.029294 -2.865071 15.861070 0.416539 -1.926934 24.393491 -0.000000 0.000000 0.000001 1.127579 -5.925215 21.190916 0.545675 -2.189287 27.987800 -0.000003 -0.000001 -0.000000 2.618553 -8.358615 27.297075 0.415120 -1.923813 24.351243 0.000001 0.000003 -0.000001 -0.000002 0.000003 0.000002 -0.000002 -0.000003 -0.000001 -0.000002 0.000003 0.000001 0.000000 0.000002 -0.000003 -0.000000 0.000002 -0.000002 0.000000 0.000002 -0.000003 -0.000000 0.000002 -0.000002 -0.000003 0.000001 -0.000001 -0.000003 0.000001 -0.000001 -0.000003 0.000001 -0.000001 -0.000003 0.000001 -0.000001 -0.000003 0.000001 -0.000001 -0.000003 0.000001 -0.000001 -0.000003 0.000001 -0.000001 -0.000000 -0.000001 -0.000000 0.000001 0.000000 0.000002 
1.976019 85.964577 157.349106 149.996213 51.438394 -179.765019 0.000000 -0.000003 0.000001 -70.161964 -21.165271 33.646635 35.557753 -8.773609 -1.669626 13.798975 -15.595767 -12.704452 0.000000 -0.000001 -0.000000 -0.000001 0.000004 0.000002 -74.404440 -0.446287 -2.926397 79.926040 -4.485168 -0.004560 -12.429820 -3.845886 17.513563 0.000000 0.000000 -0.000000 0.000001 -0.000003 -0.000000 25.691886 -1.817071 -0.939009 3.018471 -1.011859 1.490899 3.029061 -0.903440 1.555209 1.790142 -0.354963 -0.796561 1.790175 -0.354954 -0.796571 -0.000003 0.000000 0.000002 1.790130 -0.355005 -0.796547 1.790178 -0.354913 -0.796576 -0.000001 0.000000 0.000003 -0.000003 0.000000 0.000003 2.170265 -4.913207 4.765784 -69.698344 -26.124551 -32.961967 0.000002 -24.810589 -0.000007 62.818035 -6.141165 64.733439 16.995756 3.019477 16.277428 14.723873 3.855135 -2.588308 0.000001 -0.000003 -0.000005 1.087786 0.501487 -21.390411 2.588076 4.859368 -56.058658 0.000000 0.000000 0.000004 0.841057 5.375008 -38.230871 2.912246 5.061699 -59.806516 0.000005 0.000000 0.000000 5.255936 10.502213 -40.796952 3.239662 5.237792 -63.452854 0.000002 -0.000002 0.000002 8.832072 13.642220 -56.091002 1.695419 4.122540 -44.695908 0.000002 -0.000005 0.000001 -0.000002 -0.000001 0.000001 -0.000002 -0.000001 0.000001 -0.000002 -0.000001 0.000001 0.000002 -0.000002 0.000002 0.000002 -0.000002 0.000002 0.000002 -0.000002 0.000002 0.000000 -0.000003 0.000001 0.617588 7.704931 8.897691 18.172295 1.091151 66.411835 -0.000007 31.515896 0.000002 3.210806 29.574825 -11.188755 10.214741 -3.814989 -1.312413 15.698102 5.343918 -11.247163 0.000000 -0.000001 0.000001 -1.072560 5.744398 8.185227 0.415209 -1.924012 24.353982 0.000001 0.000000 0.000001 0.029301 -2.865077 15.861069 0.416536 -1.926936 24.393515 0.000002 0.000001 -0.000000 1.127584 -5.925214 21.190939 0.545672 -2.189293 27.987778 -0.000004 -0.000001 0.000000 2.618559 -8.358628 27.297092 0.415113 -1.923787 24.351216 -0.000000 -0.000000 -0.000000 0.000002 0.000004 0.000000 0.000002 0.000000 -0.000000 0.000002 0.000004 0.000003 -0.000000 0.000001 0.000003 -0.000001 0.000001 0.000005 -0.000000 0.000001 0.000003 -0.000001 0.000001 0.000005 -0.000000 -0.000003 0.000001 -0.000000 -0.000003 0.000001 -0.000000 -0.000003 0.000001 -0.000000 -0.000003 0.000001 -0.000000 -0.000003 0.000001 -0.000000 -0.000003 0.000001 -0.000000 -0.000003 0.000001 0.000001 -0.000001 -0.000000 0.000000 -0.000003 0.000001 
